<svg id="Layer_1" data-name="Layer 1" xmlns="http://www.w3.org/2000/svg" viewBox="0 0 789 789"><defs><style>.cls-1{fill:#272526;}.cls-2{fill:#ffba44;}.cls-3{fill:#f06b80;}.cls-4{fill:#28a7da;}.cls-5{fill:#fdfdfd;}</style></defs><rect id="Background" class="cls-1" width="789" height="789"/><g id="L"><path class="cls-2" d="M312,413v98h52v90H197V413H312m25-25H172V626H389V486H337V388Z"/></g><g id="O"><path class="cls-3" d="M538,413A102,102,0,1,1,436,515,102.12,102.12,0,0,1,538,413m0-25A127,127,0,1,0,665,515,127,127,0,0,0,538,388Z"/></g><g id="A"><path class="cls-4" d="M280.5,158a86.76,86.76,0,0,1,57.23,21.08c15.1,13.21,24.33,31,26,50.08v.09c.18,2,.27,4.11.27,6.25V343H324.77V301H232.18v42H197V235.5c0-2.14.09-4.24.27-6.25v-.09c1.66-19.08,10.89-36.87,26-50.08A86.76,86.76,0,0,1,280.5,158m0-25c-56.89,0-103.56,41.37-108.12,94-.26,2.8-.38,5.64-.38,8.5V368h85.18V326h42.59v42H389V235.5c0-2.86-.12-5.7-.38-8.5-4.56-52.63-51.23-94-108.12-94Z"/></g><path id="PB" class="cls-5" d="M465,150h30l-20,76.16a51.52,51.52,0,0,0-2,17.13c.39,7.46.75,14.27,6,20,7.78,8.49,20.14,7.76,22,7.62,3-.22,9.45-.79,15-5.71a21.6,21.6,0,0,0,7-13.33c.8-12.28-.16-22.25,0-29.51a25.08,25.08,0,0,0-4-14.28c-1.66-2.54-4.41-6.73-10-8.57a18.55,18.55,0,0,0-11,0,12.24,12.24,0,0,1,4-12.37,13.86,13.86,0,0,1,10-2.86c.06-2.35,1.28-4.25,3-4.76a3.71,3.71,0,0,1,2,0h42a28.08,28.08,0,0,0-4,5.71,29.36,29.36,0,0,0-3,15.23c.26,8.79.08,23.17,0,41.89,0,11.74,3.25,17.66,9,22.85,1.42,1.28,8.71,7.56,19,6.66,10.09-.88,16-8,18-10.47,6.57-8,6.8-16.85,7-24.75.19-7.62.4-15.7-5-23.8-1.94-2.91-8.39-12.58-20-13.33-8.72-.56-15.17,4.25-17,5.71-.35-2.73-1.4-13.45,6-21.89,10.86-12.38,30.16-8.74,31-8.57,24.18,4.93,36.27,36.85,38,58.07.49,6,2.47,30.36-15,49.5-3.77,4.13-12,12.89-26,16.19-22,5.18-40.17-7.48-43-9.52a179.26,179.26,0,0,0,8,79H515a197.89,197.89,0,0,0,8-34.27A181.67,181.67,0,0,0,524,289c-2.41,2-17.95,12.36-40,9.52-15.74-2-29.95-11.16-37-23.8-6.35-11.39-5.58-23.28-5-32.37a80,80,0,0,1,3-17.13C449.77,208.29,456.45,182.84,465,150Z"/></svg>